<?xml version="1.0" encoding="utf-8"?>
<!-- Generator: Adobe Illustrator 16.0.0, SVG Export Plug-In . SVG Version: 6.00 Build 0)  -->
<!DOCTYPE svg PUBLIC "-//W3C//DTD SVG 1.1//EN" "http://www.w3.org/Graphics/SVG/1.1/DTD/svg11.dtd">
<svg version="1.1" id="レイヤー_1" xmlns="http://www.w3.org/2000/svg" xmlns:xlink="http://www.w3.org/1999/xlink" x="0px"
	 y="0px" width="200px" height="65px" viewBox="0 0 200 65" enable-background="new 0 0 200 65" xml:space="preserve">
<g>
	<path fill="#FFFFFF" d="M32.082,3.026c-1.137-0.919-2.579-1.653-4.325-2.203C26.011,0.275,23.931,0,21.517,0
		c-1.716,0-3.437,0.206-5.162,0.614c-1.726,0.41-3.382,0.979-4.968,1.708C9.801,3.052,8.314,3.916,6.928,4.914
		C5.541,5.913,4.334,7.002,3.307,8.18c-1.028,1.179-1.836,2.427-2.424,3.745C0.294,13.244,0,14.583,0,15.94
		c0,1.119,0.145,2.058,0.434,2.817c0.289,0.76,0.708,1.369,1.257,1.828c0.548,0.46,1.231,0.794,2.05,1.004
		c0.818,0.209,1.755,0.315,2.813,0.315c0-0.12-0.044-0.26-0.134-0.419c-0.09-0.16-0.185-0.385-0.285-0.674s-0.194-0.679-0.284-1.169
		c-0.09-0.489-0.135-1.124-0.135-1.902c0-2.337,0.394-4.424,1.182-6.263c0.788-1.838,1.91-3.401,3.367-4.689
		c1.456-1.288,3.197-2.272,5.222-2.951c2.025-0.679,4.284-1.019,6.779-1.019c1.197,0,2.219,0.175,3.067,0.524
		c0.848,0.35,1.541,0.82,2.08,1.408c0.539,0.59,0.938,1.273,1.197,2.053c0.259,0.779,0.389,1.598,0.389,2.458
		c0,1.178-0.215,2.397-0.644,3.655c-0.429,1.258-1.028,2.407-1.795,3.446c-0.769,1.039-1.687,1.861-2.753,2.54
		c-1.067,0.68-2.24,0.982-3.516,0.982h-0.479l2.993-14.136l-9.068,1.146l-8.32,38.99h8.799l4.908-23.062
		c0.399-0.1,0.768-0.129,1.107-0.159c0.339-0.03,0.648-0.027,0.928-0.027c0.678,0,1.257,0.109,1.736,0.308
		c0.479,0.2,0.857,0.489,1.137,0.858c0.279,0.37,0.483,0.811,0.613,1.321c0.13,0.509,0.195,1.075,0.195,1.694
		c0,1.179-0.17,2.487-0.509,3.926c-0.34,1.438-0.714,2.892-1.123,4.36c-0.409,1.469-0.783,2.887-1.122,4.255
		c-0.339,1.369-0.509,2.572-0.509,3.61c0,0.479,0.064,0.965,0.194,1.454c0.13,0.49,0.369,0.929,0.718,1.318
		c0.349,0.389,0.833,0.709,1.452,0.959c0.618,0.25,1.426,0.374,2.424,0.374c0.738,0,1.606-0.08,2.604-0.239
		c0.997-0.161,2.154-0.43,3.471-0.809c-0.738-0.279-1.322-0.784-1.75-1.513c-0.429-0.729-0.644-1.573-0.644-2.532
		c0-0.979,0.154-2.098,0.464-3.356c0.309-1.258,0.653-2.577,1.032-3.955s0.723-2.771,1.033-4.18c0.309-1.408,0.464-2.751,0.464-4.03
		c0-0.719-0.07-1.403-0.209-2.052c-0.14-0.649-0.37-1.239-0.688-1.769c-0.319-0.529-0.753-0.988-1.302-1.378
		s-1.222-0.704-2.02-0.943c1.057-0.619,1.995-1.344,2.813-2.173c0.818-0.829,1.511-1.703,2.08-2.622
		c0.569-0.918,0.998-1.862,1.287-2.832c0.289-0.968,0.434-1.922,0.434-2.861c0-1.258-0.274-2.477-0.823-3.655
		C34.061,4.994,33.219,3.945,32.082,3.026z"/>
	<path fill="#FFFFFF" d="M75.505,10.622c0.438,0.43,0.953,0.77,1.542,1.019c0.588,0.25,1.222,0.374,1.9,0.374
		c0.678,0,1.312-0.124,1.9-0.374c0.588-0.25,1.107-0.589,1.557-1.019c0.449-0.429,0.803-0.938,1.062-1.528
		c0.259-0.588,0.389-1.223,0.389-1.902c0-0.679-0.13-1.313-0.389-1.903C83.206,4.7,82.852,4.18,82.403,3.73
		c-0.449-0.45-0.968-0.804-1.557-1.063c-0.588-0.26-1.222-0.39-1.9-0.39c-0.679,0-1.312,0.13-1.9,0.39
		c-0.589,0.259-1.103,0.614-1.542,1.063c-0.439,0.45-0.783,0.969-1.032,1.558c-0.25,0.589-0.374,1.224-0.374,1.903
		c0,0.679,0.124,1.314,0.374,1.902C74.722,9.684,75.066,10.193,75.505,10.622z"/>
	<path fill="#FFFFFF" d="M197.965,40.451c-0.938,0-1.581-0.24-1.93-0.719s-0.523-1.098-0.523-1.858c0-0.579,0.075-1.253,0.224-2.022
		c0.15-0.769,0.329-1.603,0.539-2.502s0.444-1.837,0.704-2.816c0.259-0.979,0.494-1.962,0.703-2.952
		c0.209-0.988,0.389-1.958,0.539-2.906c0.15-0.949,0.225-1.833,0.225-2.652c0-1.218-0.17-2.267-0.509-3.146
		c-0.339-0.879-0.813-1.598-1.421-2.158c-0.609-0.559-1.327-0.969-2.155-1.229c-0.828-0.259-1.731-0.39-2.708-0.39
		c-0.559,0-1.177,0.06-1.855,0.18c-0.678,0.12-1.387,0.359-2.125,0.719c-0.738,0.359-1.497,0.884-2.274,1.573
		c-0.778,0.689-1.537,1.603-2.274,2.742c-0.16-0.959-0.429-1.773-0.808-2.443c-0.379-0.668-0.838-1.213-1.377-1.633
		c-0.539-0.419-1.157-0.724-1.855-0.914s-1.446-0.285-2.244-0.285c-0.539,0-1.107,0.045-1.706,0.135
		c-0.599,0.09-1.217,0.26-1.855,0.509c-0.639,0.25-1.287,0.599-1.945,1.048c-0.658,0.45-1.316,0.815-1.975,1.554l0.659-3.406h-8.829
		l-4.178,19.969c-0.236,0.758-0.508,1.581-0.82,2.234c-0.319,0.67-0.684,1.301-1.092,1.781c-0.409,0.479-0.868,0.882-1.377,1.152
		c-0.509,0.269-1.062,0.419-1.661,0.419c-0.858,0-1.492-0.158-1.9-0.488c-0.409-0.329-0.614-0.919-0.614-1.779
		c0-0.319,0.02-0.643,0.06-0.973c0.04-0.329,0.109-0.663,0.209-1.002l7.033-33.139l-8.942,1.229l-2.867,14.113v-0.24
		c0-0.879-0.52-1.618-1.308-2.218c-0.788-0.599-2.112-0.899-3.849-0.899c-1.775,0-3.433,0.335-4.909,1.004
		c-1.477,0.669-2.814,1.568-3.981,2.697s-2.192,2.427-3.061,3.895c-0.868,1.469-1.595,3.002-2.173,4.6
		c-0.579,1.599-1.009,3.196-1.289,4.794c-0.224,1.284-0.334,2.485-0.379,3.64c-0.375,0.301-0.768,0.602-1.193,0.899
		c-0.729,0.509-1.542,1.024-2.439,1.543c0.1-0.339,0.165-0.699,0.194-1.079c0.03-0.379,0.045-0.798,0.045-1.258
		c0-0.679-0.015-1.334-0.045-1.963c-0.03-0.629-0.08-1.328-0.149-2.097c-0.07-0.769-0.145-1.653-0.225-2.652
		c-0.08-0.999-0.17-2.212-0.27-3.641c-0.1-1.428-0.205-3.116-0.314-5.064c-0.11-1.947-0.225-4.25-0.344-6.907l-9.068,1.199
		c-0.958,3.037-2.025,6.058-3.202,9.064c-1.177,3.007-2.624,6.048-4.339,9.124c-0.419,0.201-0.823,0.476-1.212,0.824
		c-0.389,0.35-0.733,0.764-1.033,1.244s-0.543,1.024-0.733,1.633s-0.285,1.273-0.285,1.992c0,0.036,0.004,0.071,0.005,0.106
		c-0.083,0.092-0.158,0.197-0.244,0.283c-0.479,0.479-1.002,0.854-1.571,1.124c-0.568,0.269-1.152,0.404-1.75,0.404
		c-0.858,0-1.486-0.165-1.885-0.495c-0.399-0.329-0.599-0.923-0.599-1.783c0-0.319,0.015-0.645,0.045-0.974
		c0.03-0.329,0.094-0.664,0.194-1.003l7.033-33.14l-9.067,1.228l-6.554,30.743c-0.239,0.779-0.549,1.503-0.928,2.172
		c-0.379,0.67-0.808,1.244-1.287,1.723c-0.479,0.479-1.003,0.854-1.571,1.124c-0.569,0.269-1.152,0.404-1.751,0.404
		c-0.858,0-1.486-0.165-1.885-0.495c-0.399-0.329-0.599-0.923-0.599-1.783c0-0.319,0.015-0.645,0.045-0.974
		c0.03-0.329,0.095-0.893,0.195-1.233L81.7,14.882h-8.828l-4.16,19.916c-0.22,0.779-0.489,1.638-0.808,2.347
		c-0.319,0.709-0.688,1.38-1.107,1.9s-0.883,0.963-1.392,1.271c-0.509,0.311-1.062,0.479-1.661,0.479
		c-1.676,0-2.514-0.872-2.514-2.63c0-0.319,0.02-0.641,0.06-0.97c0.04-0.329,0.109-0.892,0.209-1.231l4.399-21.083H57.07
		l-1.034,3.725v-0.449c0-0.879-0.206-1.618-0.994-2.218c-0.788-0.599-1.956-0.899-3.692-0.899c-1.776,0-3.355,0.335-4.831,1.004
		c-1.477,0.669-2.775,1.568-3.942,2.697s-2.173,2.427-3.041,3.895c-0.868,1.469-1.585,3.002-2.164,4.6
		c-0.579,1.599-1.004,3.196-1.284,4.794s-0.418,3.097-0.418,4.495c0,1.818,0.23,3.355,0.689,4.614s1.067,2.277,1.826,3.056
		c0.758,0.779,1.626,1.339,2.604,1.678c0.977,0.34,1.995,0.51,3.053,0.51c1.097,0,2.099-0.165,3.007-0.495
		c0.908-0.329,1.731-0.758,2.469-1.288c0.738-0.529,1.406-1.128,2.005-1.798c0.599-0.669,1.147-1.353,1.646-2.053
		c0.219,1.858,0.843,3.262,1.871,4.21c1.027,0.95,2.409,1.423,4.145,1.423c0.539,0,1.137-0.049,1.796-0.15
		c0.658-0.1,1.347-0.289,2.065-0.569c0.718-0.279,1.456-0.679,2.214-1.198c0.758-0.519,1.501-1.199,2.229-2.038
		c0.373-0.429,0.739-0.91,1.098-1.439c0.084,0.498,0.199,0.961,0.354,1.379c0.339,0.919,0.803,1.678,1.392,2.277
		c0.588,0.599,1.282,1.039,2.08,1.318c0.798,0.28,1.656,0.419,2.574,0.419c0.539,0,1.152-0.049,1.841-0.15
		c0.688-0.1,1.411-0.289,2.169-0.569c0.758-0.279,1.542-0.679,2.349-1.198c0.808-0.519,1.596-1.199,2.364-2.038
		c0.418-0.457,0.827-0.975,1.227-1.543c0.084,0.539,0.208,1.035,0.374,1.484c0.339,0.919,0.803,1.678,1.392,2.277
		s1.282,1.039,2.08,1.318c0.798,0.28,1.656,0.419,2.574,0.419c0.539,0,1.152-0.049,1.84-0.15c0.688-0.1,1.412-0.289,2.17-0.569
		c0.758-0.279,1.541-0.679,2.349-1.198c0.808-0.519,1.596-1.199,2.364-2.038c0.133-0.146,0.265-0.305,0.397-0.462
		c0.337,0.681,0.787,1.31,1.354,1.885c0.738,0.75,1.671,1.359,2.798,1.828c1.127,0.469,2.458,0.704,3.995,0.704
		c0.778,0,1.601-0.064,2.469-0.195c0.868-0.13,1.725-0.339,2.573-0.629s1.666-0.669,2.454-1.139c0.788-0.469,1.501-1.043,2.14-1.723
		c1.437-0.839,2.958-1.862,4.564-3.071c0.508-0.382,1.015-0.809,1.521-1.256c0.106,1.033,0.295,1.964,0.588,2.769
		c0.459,1.259,1.067,2.277,1.826,3.056c0.758,0.779,1.626,1.339,2.604,1.678c0.978,0.34,1.995,0.51,3.053,0.51
		c1.077,0,2.075-0.165,2.993-0.495c0.917-0.329,1.75-0.758,2.499-1.288c0.748-0.529,1.417-1.128,2.005-1.798
		c0.588-0.669,1.112-1.353,1.571-2.053c0.24,1.738,0.878,3.052,1.916,3.94c1.037,0.89,2.404,1.334,4.1,1.334
		c0.539,0,1.137-0.04,1.795-0.12s1.347-0.25,2.065-0.51c0.718-0.259,1.456-0.633,2.214-1.124c0.701-0.452,1.388-1.118,2.063-1.843
		l-0.746,3.454h8.829l4.16-19.615c0.239-0.779,0.519-1.482,0.838-2.182c0.319-0.699,0.683-1.29,1.092-1.809
		c0.409-0.52,0.868-0.92,1.377-1.22c0.508-0.299,1.062-0.445,1.661-0.445c0.359,0,0.653,0.078,0.883,0.227
		c0.229,0.15,0.419,0.351,0.569,0.601c0.149,0.25,0.254,0.536,0.314,0.855c0.06,0.319,0.09,0.659,0.09,1.018
		c0,0.54-0.06,0.979-0.18,1.458l-4.489,21.114h8.828l4.16-19.615c0.239-0.779,0.519-1.478,0.838-2.167
		c0.319-0.689,0.678-1.27,1.077-1.779c0.399-0.51,0.838-0.906,1.317-1.205c0.479-0.3,0.998-0.445,1.556-0.445
		c1.476,0,2.214,1.051,2.214,3.148c0,0.979-0.145,2.149-0.434,3.507c-0.29,1.359-0.604,2.768-0.943,4.226
		c-0.339,1.458-0.653,2.882-0.942,4.271c-0.29,1.388-0.434,2.603-0.434,3.64c0,0.879,0.1,1.734,0.299,2.562
		c0.199,0.829,0.539,1.568,1.018,2.217c0.479,0.65,1.112,1.168,1.9,1.558s1.771,0.584,2.948,0.584c0.818,0,1.602-0.12,2.35-0.359
		c0.748-0.24,1.426-0.619,2.035-1.139c0.609-0.519,1.123-1.173,1.542-1.963c0.419-0.789,0.698-1.742,0.838-2.861
		C199.621,40.321,198.942,40.451,197.965,40.451z M52.91,35.028c-0.199,0.898-0.494,1.688-0.883,2.367
		c-0.389,0.68-0.818,1.244-1.287,1.693c-0.469,0.45-0.958,0.79-1.466,1.019c-0.509,0.23-0.993,0.345-1.452,0.345
		c-0.28,0-0.599-0.03-0.958-0.09c-0.359-0.06-0.693-0.244-1.002-0.554c-0.31-0.309-0.574-0.783-0.793-1.423
		c-0.22-0.639-0.329-1.548-0.329-2.726c0-0.959,0.09-2.042,0.27-3.251c0.18-1.208,0.444-2.437,0.793-3.686
		c0.349-1.248,0.773-2.461,1.272-3.64c0.499-1.179,1.067-2.232,1.706-3.161c0.639-0.929,1.342-1.673,2.11-2.233
		c0.768-0.559,1.581-0.839,2.439-0.839c0.499,0,0.908,0.085,1.227,0.254c0.319,0.17,0.573,0.38,0.763,0.629
		c0.189,0.25,0.324,0.509,0.404,0.779c0.079,0.27,0.12,0.494,0.12,0.674L52.91,35.028z M111.357,38.533
		c-0.299,0.719-0.699,1.304-1.197,1.753c-0.499,0.449-1.067,0.77-1.706,0.959c-0.639,0.19-1.297,0.284-1.975,0.284
		c-1.357,0-2.319-0.354-2.888-1.063c-0.457-0.57-0.721-1.387-0.811-2.428c0.069-0.143,0.139-0.287,0.207-0.435
		c0.126,0.136,0.268,0.244,0.439,0.3c0.299,0.101,0.618,0.15,0.958,0.15c0.419,0,0.793-0.085,1.122-0.255
		c0.33-0.169,0.614-0.399,0.853-0.689c0.239-0.289,0.419-0.614,0.539-0.974c0.12-0.359,0.18-0.729,0.18-1.108
		c0-0.519-0.135-0.948-0.404-1.289c-0.27-0.339-0.604-0.619-1.003-0.839c1.018-1.978,1.945-3.905,2.783-5.783
		c0.838-1.877,1.566-3.815,2.185-5.813c0.12,1.578,0.229,2.957,0.329,4.135c0.1,1.179,0.194,2.217,0.284,3.116
		c0.09,0.899,0.169,1.689,0.239,2.367c0.07,0.68,0.125,1.294,0.165,1.843c0.04,0.55,0.075,1.069,0.105,1.558
		c0.03,0.49,0.045,0.995,0.045,1.513C111.806,36.916,111.656,37.814,111.357,38.533z M141.036,35.028v0.33
		c0,0.859-0.4,1.608-0.789,2.247c-0.389,0.64-0.771,1.169-1.24,1.588c-0.469,0.42-0.934,0.734-1.443,0.944
		c-0.509,0.209-0.961,0.315-1.38,0.315c-0.279,0-0.593-0.03-0.952-0.09c-0.359-0.06-0.69-0.244-1-0.554
		c-0.31-0.309-0.572-0.783-0.792-1.423c-0.219-0.639-0.328-1.548-0.328-2.726c0-0.959,0.09-2.042,0.27-3.251
		c0.18-1.208,0.444-2.437,0.793-3.686c0.349-1.248,0.773-2.461,1.272-3.64c0.499-1.179,1.067-2.232,1.706-3.161
		c0.639-0.929,1.342-1.673,2.11-2.233c0.768-0.559,1.581-0.839,2.439-0.839c0.479,0,0.873,0.075,1.182,0.225
		c0.309,0.15,0.554,0.34,0.733,0.569c0.18,0.23,0.314,0.464,0.404,0.705c0.09,0.239,0.061,0.449,0.101,0.629L141.036,35.028z"/>
</g>
<g>
	<path fill="#FFFFFF" d="M9.102,54.792c0.843,0,1.5,0.214,1.968,0.641c0.469,0.427,0.703,1.077,0.703,1.95
		c0,0.675-0.136,1.227-0.408,1.654c-0.272,0.427-0.694,0.702-1.266,0.824v0.028c0.506,0.075,0.876,0.239,1.111,0.493
		s0.38,0.662,0.436,1.225c0.019,0.188,0.033,0.392,0.042,0.613c0.009,0.221,0.019,0.467,0.028,0.739
		c0.019,0.535,0.047,0.943,0.084,1.225c0.056,0.282,0.178,0.474,0.366,0.577v0.085H9.974c-0.103-0.141-0.169-0.303-0.197-0.486
		c-0.028-0.183-0.047-0.373-0.056-0.57L9.664,61.86c-0.019-0.395-0.117-0.704-0.295-0.929c-0.178-0.225-0.478-0.338-0.9-0.338H7.386
		v4.252H5.361V54.792H9.102z M8.23,59.185c0.487,0,0.862-0.115,1.125-0.345c0.262-0.23,0.394-0.617,0.394-1.162
		c0-0.929-0.469-1.394-1.406-1.394H7.386v2.9H8.23z"/>
	<path fill="#FFFFFF" d="M17.911,54.792l2.658,10.053h-2.109l-0.464-2.126h-2.672l-0.464,2.126H12.75l2.658-10.053H17.911z
		 M17.644,61.058l-0.97-4.519h-0.028l-0.97,4.519H17.644z"/>
	<path fill="#FFFFFF" d="M21.645,54.792h2.025v10.053h-2.025V54.792z"/>
	<path fill="#FFFFFF" d="M25.448,54.792h2.024v8.391h3.586v1.662h-5.61V54.792z"/>
	<path fill="#FFFFFF" d="M33.863,62.001c0,0.235,0.019,0.449,0.056,0.641s0.108,0.354,0.211,0.486s0.241,0.234,0.415,0.31
		c0.173,0.075,0.391,0.112,0.654,0.112c0.309,0,0.588-0.101,0.836-0.302s0.373-0.514,0.373-0.937c0-0.225-0.03-0.42-0.091-0.584
		c-0.061-0.165-0.162-0.312-0.302-0.443s-0.326-0.251-0.556-0.359c-0.229-0.108-0.513-0.218-0.851-0.331
		c-0.45-0.15-0.839-0.314-1.167-0.493c-0.328-0.179-0.603-0.387-0.823-0.627c-0.22-0.239-0.382-0.516-0.485-0.831
		c-0.104-0.314-0.155-0.678-0.155-1.091c0-0.995,0.276-1.736,0.83-2.225c0.553-0.488,1.312-0.731,2.278-0.731
		c0.45,0,0.865,0.049,1.245,0.147s0.708,0.258,0.984,0.479c0.276,0.221,0.492,0.502,0.646,0.845
		c0.155,0.343,0.232,0.753,0.232,1.232v0.282h-1.94c0-0.479-0.084-0.847-0.253-1.105c-0.168-0.258-0.45-0.387-0.844-0.387
		c-0.225,0-0.413,0.033-0.562,0.099s-0.27,0.152-0.358,0.26c-0.089,0.108-0.15,0.232-0.183,0.373
		c-0.033,0.142-0.049,0.287-0.049,0.437c0,0.31,0.065,0.57,0.197,0.781c0.131,0.211,0.413,0.406,0.844,0.584l1.561,0.676
		c0.384,0.169,0.698,0.345,0.942,0.528c0.244,0.183,0.438,0.38,0.583,0.591c0.146,0.211,0.246,0.443,0.302,0.697
		c0.056,0.254,0.084,0.535,0.084,0.845c0,1.061-0.307,1.833-0.921,2.316C36.982,64.758,36.127,65,35.03,65
		c-1.144,0-1.961-0.249-2.454-0.747c-0.492-0.497-0.738-1.21-0.738-2.14v-0.408h2.025V62.001z"/>
	<path fill="#FFFFFF" d="M46.87,54.792c0.703,0,1.27,0.115,1.701,0.345c0.431,0.23,0.767,0.558,1.005,0.985
		c0.239,0.428,0.401,0.942,0.485,1.542c0.084,0.601,0.126,1.272,0.126,2.013c0,0.883-0.054,1.65-0.162,2.302
		c-0.108,0.653-0.293,1.189-0.556,1.612c-0.262,0.422-0.614,0.737-1.054,0.944c-0.441,0.206-0.999,0.31-1.673,0.31h-3.192V54.792
		H46.87z M46.476,63.353c0.356,0,0.642-0.061,0.857-0.183c0.216-0.122,0.387-0.324,0.513-0.605c0.126-0.282,0.211-0.653,0.253-1.112
		c0.042-0.46,0.063-1.033,0.063-1.718c0-0.573-0.019-1.075-0.056-1.506c-0.038-0.432-0.115-0.791-0.232-1.078
		c-0.117-0.286-0.291-0.501-0.521-0.647c-0.229-0.146-0.537-0.218-0.921-0.218h-0.857v7.067H46.476z"/>
	<path fill="#FFFFFF" d="M57.408,56.454h-3.586v2.365h3.375v1.662h-3.375v2.702h3.727v1.662h-5.751V54.792h5.611V56.454z"/>
	<path fill="#FFFFFF" d="M61.76,62.227h0.042l1.491-7.434h2.095l-2.306,10.053H60.48l-2.306-10.053h2.166L61.76,62.227z"/>
	<path fill="#FFFFFF" d="M72.018,56.454h-3.586v2.365h3.375v1.662h-3.375v2.702h3.727v1.662h-5.751V54.792h5.611V56.454z"/>
	<path fill="#FFFFFF" d="M73.444,54.792h2.025v8.391h3.585v1.662h-5.61V54.792z"/>
	<path fill="#FFFFFF" d="M80.123,57.713c0.07-0.642,0.225-1.194,0.464-1.654c0.239-0.46,0.583-0.819,1.033-1.077
		c0.45-0.258,1.055-0.387,1.814-0.387s1.364,0.129,1.814,0.387c0.45,0.258,0.794,0.617,1.034,1.077
		c0.239,0.459,0.394,1.012,0.464,1.654c0.07,0.644,0.105,1.345,0.105,2.105c0,0.77-0.035,1.474-0.105,2.112
		c-0.07,0.639-0.225,1.188-0.464,1.647c-0.239,0.46-0.583,0.812-1.034,1.056C84.799,64.877,84.194,65,83.435,65
		s-1.364-0.123-1.814-0.366c-0.45-0.244-0.794-0.596-1.033-1.056c-0.239-0.459-0.394-1.008-0.464-1.647
		c-0.07-0.638-0.105-1.342-0.105-2.112C80.018,59.059,80.053,58.357,80.123,57.713z M82.092,61.543
		c0.033,0.474,0.099,0.858,0.197,1.154c0.099,0.296,0.239,0.512,0.422,0.648c0.183,0.136,0.424,0.204,0.724,0.204
		s0.542-0.067,0.724-0.204c0.183-0.136,0.324-0.352,0.422-0.648c0.099-0.296,0.164-0.681,0.197-1.154
		c0.033-0.474,0.049-1.049,0.049-1.725s-0.016-1.248-0.049-1.718c-0.033-0.469-0.099-0.854-0.197-1.154
		c-0.098-0.3-0.239-0.519-0.422-0.655c-0.183-0.136-0.424-0.204-0.724-0.204s-0.541,0.068-0.724,0.204
		c-0.183,0.136-0.323,0.354-0.422,0.655c-0.098,0.3-0.164,0.685-0.197,1.154c-0.033,0.47-0.049,1.042-0.049,1.718
		S82.059,61.07,82.092,61.543z"/>
	<path fill="#FFFFFF" d="M91.864,54.792c0.516,0,0.949,0.086,1.301,0.261c0.351,0.173,0.635,0.401,0.85,0.682
		c0.216,0.282,0.371,0.604,0.464,0.965c0.093,0.362,0.141,0.73,0.141,1.105c0,0.516-0.078,0.966-0.232,1.351
		c-0.155,0.385-0.371,0.7-0.647,0.944c-0.277,0.244-0.612,0.427-1.005,0.549c-0.394,0.122-0.83,0.183-1.308,0.183h-1.083v4.013
		h-2.025V54.792H91.864z M91.246,59.34c0.402,0,0.729-0.123,0.977-0.366c0.248-0.244,0.373-0.625,0.373-1.141
		c0-0.507-0.108-0.892-0.324-1.155c-0.215-0.263-0.576-0.394-1.083-0.394h-0.844v3.055H91.246z"/>
	<path fill="#FFFFFF" d="M101.503,56.454h-3.586v2.365h3.375v1.662h-3.375v2.702h3.727v1.662h-5.751V54.792h5.611V56.454z"/>
	<path fill="#FFFFFF" d="M106.67,54.792c0.844,0,1.5,0.214,1.968,0.641c0.469,0.427,0.703,1.077,0.703,1.95
		c0,0.675-0.136,1.227-0.408,1.654c-0.272,0.427-0.694,0.702-1.266,0.824v0.028c0.506,0.075,0.876,0.239,1.111,0.493
		s0.38,0.662,0.436,1.225c0.019,0.188,0.033,0.392,0.042,0.613s0.019,0.467,0.028,0.739c0.019,0.535,0.047,0.943,0.084,1.225
		c0.056,0.282,0.178,0.474,0.366,0.577v0.085h-2.194c-0.104-0.141-0.168-0.303-0.197-0.486c-0.028-0.183-0.047-0.373-0.057-0.57
		l-0.056-1.929c-0.019-0.395-0.118-0.704-0.295-0.929c-0.178-0.225-0.479-0.338-0.9-0.338h-1.083v4.252h-2.025V54.792H106.67z
		 M105.798,59.185c0.487,0,0.862-0.115,1.125-0.345c0.262-0.23,0.394-0.617,0.394-1.162c0-0.929-0.469-1.394-1.406-1.394h-0.956v2.9
		H105.798z"/>
	<path fill="#FFFFFF" d="M112.653,62.001c0,0.235,0.019,0.449,0.056,0.641c0.038,0.192,0.107,0.354,0.211,0.486
		c0.103,0.132,0.241,0.234,0.415,0.31c0.173,0.075,0.391,0.112,0.654,0.112c0.309,0,0.588-0.101,0.837-0.302
		c0.248-0.202,0.373-0.514,0.373-0.937c0-0.225-0.031-0.42-0.092-0.584c-0.061-0.165-0.162-0.312-0.302-0.443
		s-0.326-0.251-0.555-0.359c-0.23-0.108-0.514-0.218-0.851-0.331c-0.451-0.15-0.839-0.314-1.167-0.493
		c-0.328-0.179-0.603-0.387-0.822-0.627c-0.221-0.239-0.382-0.516-0.486-0.831c-0.103-0.314-0.154-0.678-0.154-1.091
		c0-0.995,0.276-1.736,0.83-2.225c0.553-0.488,1.312-0.731,2.278-0.731c0.45,0,0.865,0.049,1.245,0.147s0.708,0.258,0.984,0.479
		c0.276,0.221,0.492,0.502,0.647,0.845c0.154,0.343,0.232,0.753,0.232,1.232v0.282h-1.94c0-0.479-0.084-0.847-0.253-1.105
		c-0.168-0.258-0.45-0.387-0.843-0.387c-0.225,0-0.413,0.033-0.562,0.099c-0.15,0.066-0.27,0.152-0.358,0.26
		c-0.09,0.108-0.15,0.232-0.183,0.373c-0.033,0.142-0.049,0.287-0.049,0.437c0,0.31,0.065,0.57,0.197,0.781
		c0.131,0.211,0.413,0.406,0.844,0.584l1.561,0.676c0.384,0.169,0.698,0.345,0.942,0.528s0.438,0.38,0.583,0.591
		c0.146,0.211,0.246,0.443,0.303,0.697c0.056,0.254,0.084,0.535,0.084,0.845c0,1.061-0.307,1.833-0.921,2.316
		C115.772,64.758,114.917,65,113.82,65c-1.144,0-1.961-0.249-2.454-0.747c-0.492-0.497-0.738-1.21-0.738-2.14v-0.408h2.025V62.001z"
		/>
	<path fill="#FFFFFF" d="M125.294,54.792l1.434,7.096h0.028l1.448-7.096h2.995v10.053h-1.856v-8.026h-0.028l-1.786,8.026h-1.575
		l-1.786-8.026h-0.028v8.026h-1.856V54.792H125.294z"/>
	<path fill="#FFFFFF" d="M138.533,56.454h-3.586v2.365h3.375v1.662h-3.375v2.702h3.727v1.662h-5.751V54.792h5.611V56.454z"/>
	<path fill="#FFFFFF" d="M145.57,56.454h-3.585v2.365h3.375v1.662h-3.375v2.702h3.726v1.662h-5.751V54.792h5.61V56.454z"/>
	<path fill="#FFFFFF" d="M152.875,56.454h-2.194v8.392h-2.025v-8.392h-2.194v-1.661h6.413V56.454z"/>
	<path fill="#FFFFFF" d="M155.918,61.804c0,0.254,0.016,0.486,0.049,0.697c0.033,0.21,0.094,0.395,0.183,0.549
		c0.089,0.155,0.211,0.277,0.366,0.366s0.349,0.133,0.583,0.133c0.244,0,0.441-0.044,0.591-0.133
		c0.149-0.089,0.269-0.211,0.358-0.366c0.089-0.154,0.149-0.338,0.183-0.549c0.033-0.211,0.05-0.443,0.05-0.697v-7.011h2.024v7.011
		c0,0.638-0.089,1.167-0.267,1.584c-0.178,0.418-0.417,0.749-0.717,0.992c-0.3,0.245-0.642,0.409-1.026,0.493
		C157.911,64.958,157.512,65,157.1,65c-0.413,0-0.811-0.038-1.195-0.113c-0.384-0.075-0.727-0.228-1.026-0.457
		c-0.3-0.23-0.54-0.557-0.717-0.979c-0.178-0.422-0.267-0.971-0.267-1.647v-7.011h2.025V61.804z"/>
	<path fill="#FFFFFF" d="M165.402,54.792c0.516,0,0.95,0.086,1.301,0.261c0.351,0.173,0.635,0.401,0.851,0.682
		c0.215,0.282,0.37,0.604,0.464,0.965c0.094,0.362,0.141,0.73,0.141,1.105c0,0.516-0.077,0.966-0.232,1.351
		c-0.155,0.385-0.37,0.7-0.647,0.944s-0.611,0.427-1.005,0.549c-0.394,0.122-0.83,0.183-1.308,0.183h-1.083v4.013h-2.025V54.792
		H165.402z M164.784,59.34c0.403,0,0.729-0.123,0.978-0.366c0.248-0.244,0.372-0.625,0.372-1.141c0-0.507-0.108-0.892-0.324-1.155
		c-0.215-0.263-0.576-0.394-1.083-0.394h-0.844v3.055H164.784z"/>
	<path fill="#FFFFFF" d="M172.63,64.845c0-0.441,0.044-0.854,0.133-1.24c0.089-0.385,0.225-0.75,0.408-1.097
		c0.183-0.348,0.413-0.688,0.689-1.021c0.277-0.333,0.598-0.668,0.963-1.006l0.815-0.761c0.226-0.197,0.406-0.38,0.542-0.549
		c0.135-0.168,0.241-0.338,0.316-0.507c0.075-0.169,0.124-0.352,0.148-0.548c0.023-0.198,0.035-0.423,0.035-0.676
		c0-0.826-0.328-1.239-0.984-1.239c-0.253,0-0.453,0.052-0.598,0.154c-0.146,0.104-0.258,0.245-0.337,0.423
		c-0.08,0.179-0.131,0.385-0.155,0.62c-0.024,0.234-0.035,0.483-0.035,0.746h-1.94v-0.38c0-0.929,0.248-1.643,0.745-2.14
		c0.497-0.497,1.28-0.747,2.349-0.747c1.012,0,1.762,0.235,2.25,0.705c0.487,0.469,0.731,1.14,0.731,2.013
		c0,0.319-0.028,0.617-0.084,0.894c-0.056,0.277-0.146,0.542-0.267,0.796c-0.122,0.253-0.282,0.5-0.478,0.739
		c-0.197,0.24-0.436,0.486-0.717,0.74l-1.125,1.042c-0.3,0.272-0.534,0.538-0.703,0.796s-0.277,0.48-0.323,0.669h3.754v1.577H172.63
		z"/>
	<path fill="#FFFFFF" d="M179.724,58.2c0.047-0.638,0.173-1.204,0.379-1.697c0.207-0.493,0.518-0.887,0.936-1.183
		c0.417-0.295,0.996-0.443,1.736-0.443c0.609,0,1.113,0.087,1.512,0.261c0.398,0.173,0.717,0.453,0.956,0.837
		c0.239,0.385,0.408,0.885,0.506,1.5c0.099,0.615,0.148,1.363,0.148,2.246c0,0.694-0.024,1.361-0.07,2
		c-0.047,0.638-0.174,1.204-0.38,1.696c-0.206,0.492-0.518,0.88-0.935,1.161c-0.417,0.282-0.996,0.423-1.737,0.423
		c-0.6,0-1.102-0.08-1.504-0.24c-0.403-0.159-0.724-0.432-0.963-0.816c-0.239-0.385-0.408-0.885-0.506-1.499
		c-0.098-0.615-0.147-1.364-0.147-2.246C179.653,59.504,179.677,58.838,179.724,58.2z M181.728,62.177
		c0.033,0.399,0.091,0.713,0.176,0.943c0.084,0.23,0.197,0.387,0.337,0.472c0.141,0.085,0.319,0.127,0.534,0.127
		c0.225,0,0.408-0.054,0.549-0.162c0.14-0.108,0.25-0.291,0.331-0.549c0.079-0.258,0.136-0.604,0.168-1.035s0.049-0.966,0.049-1.605
		v-1.084c0-0.628-0.017-1.143-0.049-1.542s-0.091-0.713-0.176-0.944c-0.084-0.229-0.197-0.387-0.337-0.471s-0.319-0.126-0.535-0.126
		c-0.225,0-0.408,0.054-0.548,0.162c-0.141,0.108-0.251,0.291-0.331,0.549c-0.08,0.258-0.136,0.604-0.168,1.035
		c-0.033,0.432-0.049,0.967-0.049,1.605v1.084C181.678,61.265,181.694,61.778,181.728,62.177z"/>
	<path fill="#FFFFFF" d="M188.983,57.806H187v-1.324h0.183c0.675,0,1.207-0.127,1.596-0.38s0.635-0.661,0.738-1.225h1.491v9.969
		h-2.025V57.806z"/>
	<path fill="#FFFFFF" d="M196.028,63.402c0.136,0.21,0.373,0.316,0.71,0.316c0.272,0,0.487-0.063,0.647-0.19
		c0.159-0.126,0.283-0.303,0.373-0.528c0.089-0.226,0.147-0.492,0.176-0.802c0.028-0.31,0.042-0.648,0.042-1.014v-0.478h-0.028
		c-0.169,0.253-0.411,0.457-0.725,0.612c-0.314,0.155-0.696,0.232-1.146,0.232c-0.441,0-0.816-0.077-1.125-0.232
		c-0.31-0.155-0.561-0.371-0.752-0.648c-0.192-0.277-0.333-0.605-0.422-0.985c-0.089-0.38-0.134-0.796-0.134-1.246
		c0-1.155,0.256-2.037,0.767-2.647s1.329-0.916,2.454-0.916c0.694,0,1.247,0.13,1.66,0.387c0.412,0.259,0.729,0.602,0.949,1.028
		c0.221,0.427,0.363,0.922,0.429,1.485c0.065,0.563,0.098,1.15,0.098,1.76c0,0.713-0.021,1.401-0.063,2.062
		c-0.042,0.662-0.168,1.246-0.379,1.753c-0.211,0.507-0.544,0.908-0.999,1.204c-0.455,0.296-1.089,0.444-1.905,0.444
		c-0.356,0-0.701-0.035-1.034-0.105c-0.333-0.07-0.626-0.202-0.879-0.395s-0.457-0.451-0.612-0.774
		c-0.155-0.323-0.237-0.725-0.246-1.204h1.941C195.824,62.897,195.892,63.19,196.028,63.402z M195.922,59.622
		c0.168,0.291,0.45,0.437,0.844,0.437c0.403,0,0.689-0.146,0.858-0.437c0.168-0.291,0.253-0.775,0.253-1.45
		c0-0.282-0.014-0.544-0.042-0.789s-0.082-0.453-0.162-0.626s-0.192-0.31-0.337-0.409c-0.146-0.098-0.335-0.147-0.569-0.147
		c-0.244,0-0.438,0.049-0.583,0.147c-0.146,0.099-0.256,0.237-0.331,0.416c-0.075,0.178-0.125,0.387-0.148,0.626
		c-0.023,0.239-0.035,0.5-0.035,0.782C195.669,58.847,195.753,59.331,195.922,59.622z"/>
</g>
</svg>
